<svg xmlns="http://www.w3.org/2000/svg" viewBox="0 0 730 730"><g class="lucky-wheel__spinner"><circle cx="365" cy="365" r="347.6" fill="#000"></circle><g fill="#000"><rect width="9.3" height="24.33" x="360.4" rx="4" ry="4"></rect><rect width="24.3" height="9.27" x="352.8" y="713.2" rx="4" ry="4" transform="rotate(90 365 717.8)"></rect><rect width="24.3" height="9.27" x="176.4" y="54.8" rx="4" ry="4" transform="rotate(60 188.600994 59.466504)"></rect><rect width="24.3" height="9.27" x="529.2" y="665.9" rx="4" ry="4" transform="rotate(60 541.400994 670.534029)"></rect><rect width="24.3" height="9.27" x="47.3" y="183.9" rx="4" ry="4" transform="rotate(30 59.547114 188.644399)"></rect><rect width="24.3" height="9.27" x="658.4" y="536.8" rx="4" ry="4" transform="rotate(30 670.454874 541.352158)"></rect><rect width="24.3" height="9.27" y="360.4" rx="4" ry="4"></rect><rect width="24.3" height="9.27" x="705.7" y="360.4" rx="4" ry="4"></rect><rect width="24.3" height="9.27" x="47.3" y="536.8" rx="4" ry="4" transform="rotate(-30 59.544399 541.354874)"></rect><rect width="24.3" height="9.27" x="658.4" y="183.9" rx="4" ry="4" transform="rotate(-30 670.452158 188.647114)"></rect><rect width="24.3" height="9.27" x="176.4" y="665.9" rx="4" ry="4" transform="rotate(-60 188.600266 670.534756)"></rect><rect width="24.3" height="9.27" x="529.2" y="54.8" rx="4" ry="4" transform="rotate(-60 541.400266 59.467231)"></rect></g><g class="sectors"><path d="M365 365V35.9A328.1 328.1 0 00200.5 80z" fill="#DA3F3F"></path><path d="M365 365L529.5 80A328.1 328.1 0 00365 35.9z" fill="#E49686"></path><path d="M365 365l285-164.5A328.5 328.5 0 00529.5 80z" fill="#DA3F3F"></path><path d="M365 365h329.1A328.1 328.1 0 00650 200.5z" fill="#E49686"></path><path d="M365 365l285 164.5A328.1 328.1 0 00694.1 365z" fill="#DA3F3F"></path><path d="M365 365l164.5 285A328.5 328.5 0 00650 529.5z" fill="#E49686"></path><path d="M365 365v329.1A328.1 328.1 0 00529.5 650z" fill="#DA3F3F"></path><path d="M365 365L200.5 650A328.1 328.1 0 00365 694.1z" fill="#E49686"></path><path d="M365 365L80 529.5A328.5 328.5 0 00200.5 650z" fill="#DA3F3F"></path><path d="M365 365H35.9A328.1 328.1 0 0080 529.5z" fill="#E49686"></path><path d="M365 365L80 200.5A328.1 328.1 0 0035.9 365z" fill="#DA3F3F"></path><path d="M365 365L200.5 80A328.5 328.5 0 0080 200.5z" fill="#E49686"></path></g><g class="texts"><text key="0" x="655" y="370" class="lucky-wheel__text" text-anchor="end" transform="rotate(316 365 368.5)">10% OFF</text><text key="1" x="655" y="370" class="lucky-wheel__text" text-anchor="end" transform="rotate(346 365 368.5)">Free shipping</text><text key="2" x="655" y="370" class="lucky-wheel__text" text-anchor="end" transform="rotate(376 365 368.5)">No luck</text><text key="3" x="655" y="370" class="lucky-wheel__text" text-anchor="end" transform="rotate(406 365 368.5)">20% OFF</text><text key="4" x="655" y="370" class="lucky-wheel__text" text-anchor="end" transform="rotate(436 365 368.5)">30% OFF</text><text key="5" x="655" y="370" class="lucky-wheel__text" text-anchor="end" transform="rotate(466 365 368.5)">No luck</text><text key="0" x="655" y="370" class="lucky-wheel__text" text-anchor="end" transform="rotate(496 365 368.5)">10% OFF</text><text key="1" x="655" y="370" class="lucky-wheel__text" text-anchor="end" transform="rotate(526 365 368.5)">Free shipping</text><text key="2" x="655" y="370" class="lucky-wheel__text" text-anchor="end" transform="rotate(556 365 368.5)">No luck</text><text key="3" x="655" y="370" class="lucky-wheel__text" text-anchor="end" transform="rotate(586 365 368.5)">20% OFF</text><text key="4" x="655" y="370" class="lucky-wheel__text" text-anchor="end" transform="rotate(616 365 368.5)">30% OFF</text><text key="5" x="655" y="370" class="lucky-wheel__text" text-anchor="end" transform="rotate(646 365 368.5)">No luck</text></g></g><path d="M46.9 372.5c0-181.7 147.4-329 329.1-329a327.3 327.3 0 01180.3 53.7A327.3 327.3 0 00365 35.9C183.3 35.9 35.9 183.3 35.9 365c0 115.2 59.2 216.5 148.8 275.3-83.4-59.7-137.8-157.4-137.8-267.8z" opacity=".15"></path><circle cx="368.5" cy="368.5" r="54.5" opacity=".2"></circle><circle cx="365" cy="365" r="54.5" fill="#fff"></circle><g transform="rotate(-11 629.32 100.271) matrix(0.672199 0.0352312 -0.0352312 0.672199 183.695 17.3466)"><g class="ticker" data-svg-origin="684.5087463378907 76.26302062988282" style="transform-origin: 0px 0px;" transform="matrix(0.99863,0.05234,-0.05234,0.99863,4.92938,-35.72271)"><path d="m713.1374,66.11246c-11.4,-17.9 -35.8,-22.8 -54.5,-11a41.7,41.7 0 0 0 -13.6,14.1l-33.6,58.9a2.3,2.3 0 0 0 0,2.4a2.4,2.4 0 0 0 2.3,1.1l67.5,-5.1a43.8,43.8 0 0 0 18.6,-6.3c18.7,-11.9 24.6,-36.1 13.3,-54.1z" fillOpacity="0.22"></path><path d="m718.0374,63.01246a38.4,38.4 0 0 0 -66,1.8l-31.5,57.5a2.1,2.1 0 0 0 0,2.4a2.6,2.6 0 0 0 2.2,1.2l65.6,-3.9a39.6,39.6 0 0 0 17.9,-5.9a38.5,38.5 0 0 0 11.8,-53.1z" fill="#fcfcfc"></path><path d="m687.8374,72.51246a9.3,9.3 0 0 0 -6.6,4.8l-0.8,2.1a14.9,14.9 0 0 0 -0.2,2.1a8.8,8.8 0 0 0 1.1,4.2a9.2,9.2 0 0 0 2.9,3a7.6,7.6 0 0 0 2.9,1.3l1.1,0.2a8.6,8.6 0 0 0 4.2,-0.6a8.4,8.4 0 0 0 3.4,-2.5a7.4,7.4 0 0 0 2,-3.8a8.5,8.5 0 0 0 -0.1,-4.2a8.4,8.4 0 0 0 -2.1,-3.8a7.4,7.4 0 0 0 -3.5,-2.3l-1,-0.3a12.2,12.2 0 0 0 -3.3,-0.2z" fill="#ccc"></path></g></g></svg>