<svg xmlns="http://www.w3.org/2000/svg" width="15" height="15" fill="none"><path fill="#fff" d="M1.14895 15.09625V8.5719h5.51649v6.89685H1.52005c-.0488 0-.097-.0096-.1421-.0284-.045-.0187-.0859-.0461-.1203-.0807-.0345-.0346-.0618-.0757-.0805-.1209-.0186-.0452-.0282-.0936-.0282-.1425zm7.18563.3725h5.14543c.09841 0 .19279-.0393.26238-.1091.06959-.0699.10869-.1646.10869-.2634V8.5719h-5.5165v6.89685zM.83985 7.76546h5.82559V5.21857H.83985c-.0488 0-.097.00963-.142.02835a.36979.36979 0 00-.1204.08076c-.0345.0346-.0618.07567-.0805.12087a.374677.374677 0 00-.0282.14256v1.80181c0 .04892.0096.09736.0282.14256.0187.0452.046.08627.0805.12087a.369604.369604 0 00.1204.08075c.045.01873.0932.02836.142.02836zm7.49473 0h5.8256a.369813.369813 0 00.142-.02835.371231.371231 0 00.12039-.08076.372698.372698 0 00.08043-.12087.373778.373778 0 00.02825-.14256V5.59111a.374008.374008 0 00-.02824-.14257c-.01865-.0452-.04598-.08627-.08044-.12086a.370914.370914 0 00-.12039-.08076.369626.369626 0 00-.142-.02835H8.33457l.00001 2.54689zM2.17965 1.43727C2.17965-.22865 5.49588.17071 7.5 3.29048c2.00412-3.11977 5.32037-3.51913 5.32037-1.8532 0 1.66455-2.27716 3.05247-5.32037 3.05247-3.04325 0-5.32035-1.38792-5.32035-3.05247v-.00001zm5.63406 2.71001c1.24133-.16531 3.46397-1.18994 3.46397-2.07854 0-.37341-.31988-.55209-.78214-.46154-.67905.133-2.05951 1.46591-2.68183 2.54008zM3.72235 2.06873c0 .88861 2.22261 1.91323 3.46394 2.07854C6.56398 3.0731 5.18355 1.7402 4.50445 1.6072c-.4622-.09056-.7821.08812-.7821.46153z"></path></svg>