<svg xmlns="http://www.w3.org/2000/svg" class="w-[16px] h-[16px]" fill="none" viewBox="0 0 16 17"><path fill="currentColor" d="M7.66406.585938c.21094-.1875.41016-.1875.59766 0L15.6094 7.96875c.2109.1875.2109.375 0 .5625L8.26172 15.9141c-.1875.1875-.38672.1875-.59766 0l-.70312-.7032c-.07032-.0703-.10547-.164-.10547-.2812s.03515-.2227.10547-.3164l5.44926-5.44924H.421875C.140625 9.16406 0 9.02344 0 8.74219v-.98438c0-.28125.140625-.42187.421875-.42187H12.4102L6.96094 1.88672c-.1875-.21094-.1875-.41016 0-.59766l.70312-.703122z"></path></svg>